<svg width="24" height="24" viewBox="0 0 24 24" fill="none" xmlns="http://www.w3.org/2000/svg">
<path d="M17.3886 10.9647C17.3886 12.5911 15.781 15.634 14.321 18.0622C13.2458 19.8506 10.743 19.8506 9.6677 18.0623C8.20771 15.634 6.6001 12.5911 6.6001 10.9647C6.6001 7.98561 9.01463 5.57045 11.9944 5.57045C14.9741 5.57045 17.3886 7.98561 17.3886 10.9647Z" stroke="#999999" stroke-width="1.5" stroke-miterlimit="10"/>
<path d="M11.9945 13.4955C13.1727 13.4955 14.1277 12.5404 14.1277 11.3623C14.1277 10.1841 13.1727 9.22908 11.9945 9.22908C10.8164 9.22908 9.86133 10.1841 9.86133 11.3623C9.86133 12.5404 10.8164 13.4955 11.9945 13.4955Z" stroke="#999999" stroke-width="1.5" stroke-miterlimit="10"/>
</svg>
