<svg width="15" height="15" viewBox="0 0 15 15" fill="none" xmlns="http://www.w3.org/2000/svg">
<path d="M9.86607 10.011C9.7445 10.1488 9.63515 10.2861 9.51229 10.4104C8.31076 11.6262 6.5181 11.5779 5.37959 10.3022C4.08736 8.85507 4.09315 6.50076 5.39632 5.06201C6.49944 3.84169 8.20848 3.76308 9.41645 4.87645L9.55217 5.00531C9.55217 4.86807 9.55217 4.76048 9.55217 4.65223C9.55538 4.32557 9.77022 4.09233 10.0667 4.09233C10.3633 4.09233 10.5813 4.32815 10.5813 4.65352C10.5813 6.03621 10.5762 7.4189 10.5813 8.80159C10.5837 9.05446 10.6505 9.30252 10.7756 9.52218C10.9007 9.74183 11.0799 9.92577 11.296 10.0565C11.5121 10.1872 11.758 10.2603 12.0103 10.2689C12.2626 10.2776 12.5129 10.2214 12.7374 10.1057C12.9274 10.0115 13.0939 9.87573 13.2244 9.70845C13.355 9.54117 13.4464 9.34663 13.4919 9.13921C13.8091 7.81257 13.6793 6.4181 13.1227 5.17309C12.5661 3.92807 11.614 2.90245 10.4147 2.25604C6.74128 0.290251 2.23101 2.43967 1.43792 6.5349C0.768972 9.98776 3.15275 13.3259 6.63644 13.8105C8.08819 14.0121 9.4409 13.7222 10.701 12.9729C10.8324 12.8958 10.9823 12.8561 11.1345 12.8582C11.3487 12.8659 11.5063 13.0444 11.5474 13.2486C11.5721 13.3541 11.5619 13.4646 11.5185 13.5638C11.4752 13.663 11.4009 13.7455 11.3069 13.7989C10.7517 14.1531 10.149 14.4263 9.51679 14.61C5.51466 15.7698 1.4122 13.342 0.476309 9.26227C-0.339296 5.69795 1.74925 2.0009 5.21879 0.868198C9.24407 -0.446839 13.461 1.87783 14.4812 5.975C14.7706 7.1412 14.7822 8.31385 14.4606 9.47167C14.1827 10.4704 13.4996 11.0889 12.4808 11.2564C11.4304 11.4291 10.5839 11.0399 9.96704 10.1643C9.93102 10.1121 9.90016 10.0625 9.86607 10.011ZM9.55345 7.71013C9.54252 7.01428 9.36627 6.39574 8.9411 5.86482C8.13901 4.86357 6.83263 4.87065 6.03954 5.87835C5.70669 6.30191 5.50539 6.81408 5.46064 7.35125C5.37895 8.22236 5.57448 9.01744 6.18554 9.6669C6.94518 10.4749 8.06375 10.4658 8.82275 9.6553C9.33732 9.10571 9.54059 8.42918 9.55345 7.71013Z" fill="black"/>
</svg>
