<svg width="21" height="20" viewBox="0 0 21 20" fill="none" xmlns="http://www.w3.org/2000/svg">
<g clip-path="url(#clip0_798_2346)">
<path d="M16.9307 13.8856C18.9719 12.064 20.0999 10 20.0999 10C20.0999 10 16.4999 3.4 10.4999 3.4C9.34737 3.40397 8.20792 3.64411 7.15186 4.1056L8.07586 5.0308C8.85278 4.74778 9.67299 4.60201 10.4999 4.6C13.0439 4.6 15.1547 6.0016 16.7015 7.5484C17.4459 8.29683 18.1132 9.11815 18.6935 10C18.6239 10.1044 18.5471 10.2196 18.4595 10.3456C18.0575 10.9216 17.4635 11.6896 16.7015 12.4516C16.5035 12.6496 16.2971 12.8452 16.0811 13.0348L16.9307 13.8856Z" fill="#999999"/>
<path d="M14.4563 11.4112C14.7241 10.6622 14.7737 9.85253 14.5993 9.07646C14.4249 8.30039 14.0338 7.58979 13.4713 7.02734C12.9089 6.46489 12.1983 6.07372 11.4222 5.89935C10.6461 5.72498 9.83648 5.77457 9.08749 6.04236L10.0751 7.02996C10.5363 6.96395 11.0065 7.00625 11.4485 7.15351C11.8904 7.30077 12.2921 7.54895 12.6215 7.87837C12.9509 8.20779 13.1991 8.60941 13.3463 9.05139C13.4936 9.49338 13.5359 9.96358 13.4699 10.4248L14.4563 11.4112ZM10.9247 12.97L11.9111 13.9564C11.1621 14.2241 10.3525 14.2737 9.57639 14.0994C8.80032 13.925 8.08972 13.5338 7.52727 12.9714C6.96482 12.4089 6.57366 11.6983 6.39928 10.9223C6.22491 10.1462 6.2745 9.33655 6.54229 8.58756L7.52989 9.57516C7.46388 10.0363 7.50618 10.5065 7.65344 10.9485C7.80071 11.3905 8.04888 11.7921 8.3783 12.1215C8.70772 12.451 9.10934 12.6991 9.55132 12.8464C9.99331 12.9937 10.4635 13.036 10.9247 12.97V12.97Z" fill="#999999"/>
<path d="M4.9199 6.96411C4.7039 7.15611 4.4963 7.35051 4.2983 7.54851C3.65202 8.19827 3.06383 8.90298 2.5403 9.65452C2.39587 9.86186 2.39863 10.1365 2.5403 10.3457V10.3457C2.9423 10.9217 3.5363 11.6897 4.2983 12.4517C5.8451 13.9985 7.9571 15.4001 10.4999 15.4001C11.2183 15.4001 11.9014 15.2885 12.5479 15.0928C12.7793 15.0227 13.033 15.0774 13.2037 15.2486V15.2486C13.5135 15.5592 13.4124 16.0827 12.9939 16.2139C12.1883 16.4665 11.3476 16.5972 10.4999 16.6001C6.03563 16.6001 2.9 12.9463 1.58731 11.0759C1.12928 10.4233 1.1299 9.57608 1.58797 8.92347C2.05203 8.26231 2.74366 7.37853 3.64092 6.51196C3.87662 6.28433 4.25012 6.29579 4.48166 6.52765L4.9175 6.96411C4.91817 6.96477 4.91924 6.96477 4.9199 6.96411V6.96411ZM17.6999 17.2001C17.4653 17.4347 17.0849 17.4347 16.8503 17.2001L3.2999 3.64971C3.06529 3.4151 3.06529 3.03472 3.2999 2.80011V2.80011C3.53451 2.5655 3.91489 2.5655 4.1495 2.80011L17.6999 16.3505C17.9345 16.5851 17.9345 16.9655 17.6999 17.2001V17.2001Z" fill="#999999"/>
</g>
<defs>
<clipPath id="clip0_798_2346">
<rect width="19.2" height="19.2" fill="white" transform="translate(0.899902 0.4)"/>
</clipPath>
</defs>
</svg>
