<svg width="30" height="30" viewBox="0 0 30 30" fill="none" xmlns="http://www.w3.org/2000/svg">
<path d="M27 14.9687C27 14.9687 22.5 6.71875 15 6.71875C7.49999 6.71875 3 14.9687 3 14.9687C3 14.9687 7.49999 23.2187 15 23.2187C22.5 23.2187 27 14.9687 27 14.9687ZM4.7595 14.9687C5.48477 13.8664 6.31896 12.8398 7.2495 11.9042C9.17999 9.97075 11.82 8.21875 15 8.21875C18.18 8.21875 20.8185 9.97075 22.752 11.9042C23.6825 12.8398 24.5167 13.8664 25.242 14.9687C25.155 15.0992 25.059 15.2432 24.9495 15.4007C24.447 16.1207 23.7045 17.0807 22.752 18.0332C20.8185 19.9667 18.1785 21.7187 15 21.7187C11.82 21.7187 9.18149 19.9667 7.248 18.0332C6.31747 17.0977 5.48328 16.071 4.758 14.9687H4.7595Z" fill="#999999"/>
<path d="M15 11.2187C14.0054 11.2187 13.0516 11.6138 12.3483 12.3171C11.6451 13.0204 11.25 13.9742 11.25 14.9687C11.25 15.9633 11.6451 16.9171 12.3483 17.6204C13.0516 18.3237 14.0054 18.7187 15 18.7187C15.9946 18.7187 16.9484 18.3237 17.6516 17.6204C18.3549 16.9171 18.75 15.9633 18.75 14.9687C18.75 13.9742 18.3549 13.0204 17.6516 12.3171C16.9484 11.6138 15.9946 11.2187 15 11.2187ZM9.75 14.9687C9.75 13.5764 10.3031 12.241 11.2877 11.2564C12.2723 10.2719 13.6076 9.71875 15 9.71875C16.3924 9.71875 17.7277 10.2719 18.7123 11.2564C19.6969 12.241 20.25 13.5764 20.25 14.9687C20.25 16.3611 19.6969 17.6965 18.7123 18.6811C17.7277 19.6656 16.3924 20.2187 15 20.2187C13.6076 20.2187 12.2723 19.6656 11.2877 18.6811C10.3031 17.6965 9.75 16.3611 9.75 14.9687Z" fill="#999999"/>
</svg>
