<svg width="24" height="18" viewBox="0 0 24 18" fill="none" xmlns="http://www.w3.org/2000/svg">
<path d="M24 8.96874C24 8.96874 19.5 0.71875 12 0.71875C4.49999 0.71875 0 8.96874 0 8.96874C0 8.96874 4.49999 17.2187 12 17.2187C19.5 17.2187 24 8.96874 24 8.96874ZM1.7595 8.96874C2.48477 7.86643 3.31896 6.83977 4.2495 5.90424C6.17999 3.97075 8.81999 2.21875 12 2.21875C15.18 2.21875 17.8185 3.97075 19.752 5.90424C20.6825 6.83977 21.5167 7.86643 22.242 8.96874C22.155 9.09924 22.059 9.24324 21.9495 9.40074C21.447 10.1207 20.7045 11.0807 19.752 12.0332C17.8185 13.9667 15.1785 15.7187 12 15.7187C8.81999 15.7187 6.18149 13.9667 4.248 12.0332C3.31747 11.0977 2.48328 10.071 1.758 8.96874H1.7595Z" fill="#999999"/>
<path d="M12 5.21875C11.0054 5.21875 10.0516 5.61384 9.34835 6.3171C8.64509 7.02036 8.25 7.97418 8.25 8.96874C8.25 9.9633 8.64509 10.9171 9.34835 11.6204C10.0516 12.3237 11.0054 12.7187 12 12.7187C12.9946 12.7187 13.9484 12.3237 14.6516 11.6204C15.3549 10.9171 15.75 9.9633 15.75 8.96874C15.75 7.97418 15.3549 7.02036 14.6516 6.3171C13.9484 5.61384 12.9946 5.21875 12 5.21875ZM6.75 8.96874C6.75 7.57636 7.30312 6.241 8.28769 5.25644C9.27225 4.27187 10.6076 3.71875 12 3.71875C13.3924 3.71875 14.7277 4.27187 15.7123 5.25644C16.6969 6.241 17.25 7.57636 17.25 8.96874C17.25 10.3611 16.6969 11.6965 15.7123 12.6811C14.7277 13.6656 13.3924 14.2187 12 14.2187C10.6076 14.2187 9.27225 13.6656 8.28769 12.6811C7.30312 11.6965 6.75 10.3611 6.75 8.96874Z" fill="#999999"/>
</svg>
