<svg width="30" height="30" viewBox="0 0 30 30" fill="none" xmlns="http://www.w3.org/2000/svg">
<g clip-path="url(#clip0_51_4652)">
<path d="M23.0386 19.857C25.5901 17.58 27.0001 15 27.0001 15C27.0001 15 22.5001 6.75 15.0001 6.75C13.5595 6.75496 12.1351 7.05514 10.8151 7.632L11.9701 8.7885C12.9412 8.43473 13.9665 8.25252 15.0001 8.25C18.1801 8.25 20.8186 10.002 22.7521 11.9355C23.6826 12.871 24.5168 13.8977 25.2421 15C25.1551 15.1305 25.0591 15.2745 24.9496 15.432C24.4471 16.152 23.7046 17.112 22.7521 18.0645C22.5046 18.312 22.2466 18.5565 21.9766 18.7935L23.0386 19.857Z" fill="#999999"/>
<path d="M19.9455 16.7636C20.2803 15.8273 20.3423 14.8153 20.1243 13.8452C19.9063 12.8751 19.4174 11.9868 18.7143 11.2838C18.0113 10.5807 17.123 10.0918 16.1529 9.8738C15.1828 9.65583 14.1708 9.71782 13.2345 10.0526L14.469 11.2871C15.0455 11.2045 15.6333 11.2574 16.1857 11.4415C16.7382 11.6256 17.2402 11.9358 17.652 12.3476C18.0638 12.7593 18.374 13.2614 18.5581 13.8138C18.7422 14.3663 18.7951 14.9541 18.7125 15.5306L19.9455 16.7636ZM15.531 18.7121L16.764 19.9451C15.8278 20.2798 14.8158 20.3418 13.8457 20.1238C12.8756 19.9058 11.9873 19.4169 11.2843 18.7138C10.5812 18.0108 10.0923 17.1225 9.87429 16.1524C9.65632 15.1823 9.71831 14.1703 10.053 13.2341L11.2875 14.4686C11.205 15.045 11.2579 15.6328 11.442 16.1853C11.6261 16.7377 11.9363 17.2398 12.3481 17.6515C12.7598 18.0633 13.2619 18.3735 13.8143 18.5576C14.3668 18.7417 14.9546 18.7946 15.531 18.7121Z" fill="#999999"/>
<path d="M8.02512 11.2048C7.75512 11.4447 7.49562 11.6877 7.24812 11.9352C6.44027 12.7475 5.70503 13.6283 5.05062 14.5678C4.87008 14.8269 4.87353 15.1702 5.05062 15.4318C5.55312 16.1518 6.29562 17.1118 7.24812 18.0643C9.18162 19.9978 11.8216 21.7498 15.0001 21.7498C15.8981 21.7498 16.752 21.6103 17.5601 21.3656C17.8493 21.278 18.1664 21.3464 18.3798 21.5604C18.7671 21.9486 18.6408 22.603 18.1176 22.767C17.1106 23.0827 16.0598 23.2461 15.0001 23.2498C9.20136 23.2498 5.19597 18.318 3.67723 16.0806C3.22942 15.4209 3.23123 14.5758 3.67915 13.9162C4.25321 13.0708 5.18145 11.8419 6.4264 10.6396C6.72102 10.355 7.1879 10.3693 7.47731 10.6592L8.02212 11.2047C8.02295 11.2056 8.02429 11.2056 8.02512 11.2048ZM24.0001 23.9998C23.7069 24.293 23.2314 24.293 22.9381 23.9998L6.00012 7.06175C5.70686 6.76849 5.70686 6.29301 6.00012 5.99975C6.29339 5.70649 6.76886 5.70649 7.06212 5.99975L24.0001 22.9377C24.2934 23.231 24.2934 23.7065 24.0001 23.9998Z" fill="#999999"/>
</g>
<defs>
<clipPath id="clip0_51_4652">
<rect width="24" height="24" fill="white" transform="translate(3 3)"/>
</clipPath>
</defs>
</svg>
