<svg width="24" height="25" viewBox="0 0 24 25" fill="none" xmlns="http://www.w3.org/2000/svg">
<g clip-path="url(#clip0_636_1647)">
<path d="M24 12.8877C24 6.25957 18.6281 0.887695 12 0.887695C5.37188 0.887695 0 6.25957 0 12.8877C0 18.8783 4.3875 23.8424 10.125 24.7424V16.3564H7.07812V12.8877H10.125V10.2439C10.125 7.23691 11.9156 5.5752 14.6578 5.5752C15.9703 5.5752 17.3438 5.80957 17.3438 5.80957V8.7627H15.8297C14.3391 8.7627 13.875 9.68848 13.875 10.6377V12.8877H17.2031L16.6711 16.3564H13.875V24.7424C19.6125 23.8424 24 18.8783 24 12.8877Z" fill="#111827"/>
</g>
<defs>
<clipPath id="clip0_636_1647">
<rect width="24" height="24" fill="white" transform="translate(0 0.887695)"/>
</clipPath>
</defs>
</svg>
