<svg width="24" height="25" viewBox="0 0 24 25" fill="none" xmlns="http://www.w3.org/2000/svg">
<path d="M11.9756 3.04923C15.174 3.04923 15.5495 3.06348 16.8137 3.12051C17.9828 3.17279 18.6148 3.36764 19.0378 3.53398C19.5986 3.75259 19.9978 4.00923 20.416 4.42744C20.8342 4.84566 21.0956 5.24487 21.3095 5.80566C21.4711 6.22863 21.6707 6.86071 21.723 8.02982C21.78 9.29398 21.7942 9.66942 21.7942 12.8678C21.7942 16.0663 21.78 16.4417 21.723 17.7059C21.6707 18.875 21.4758 19.507 21.3095 19.93C21.0909 20.4908 20.8342 20.89 20.416 21.3082C19.9978 21.7265 19.5986 21.9878 19.0378 22.2017C18.6148 22.3633 17.9828 22.5629 16.8137 22.6152C15.5495 22.6722 15.174 22.6865 11.9756 22.6865C8.77722 22.6865 8.40177 22.6722 7.13761 22.6152C5.96851 22.5629 5.33643 22.368 4.91346 22.2017C4.35266 21.9831 3.95346 21.7265 3.53524 21.3082C3.11702 20.89 2.85564 20.4908 2.64177 19.93C2.48019 19.507 2.28059 18.875 2.22831 17.7059C2.17128 16.4417 2.15702 16.0663 2.15702 12.8678C2.15702 9.66942 2.17128 9.29398 2.22831 8.02982C2.28059 6.86071 2.47544 6.22863 2.64177 5.80566C2.86039 5.24487 3.11702 4.84566 3.53524 4.42744C3.95346 4.00923 4.35266 3.74784 4.91346 3.53398C5.33643 3.37239 5.96851 3.17279 7.13761 3.12051C8.40177 3.05873 8.77722 3.04923 11.9756 3.04923ZM11.9756 0.891602C8.72494 0.891602 8.31623 0.905859 7.03781 0.962889C5.76415 1.01992 4.89445 1.22427 4.13405 1.51893C3.34514 1.82309 2.67979 2.23655 2.01445 2.9019C1.3491 3.56725 0.940388 4.23734 0.631477 5.0215C0.336824 5.7819 0.132467 6.6516 0.0754375 7.93002C0.0184078 9.20368 0.00415039 9.61239 0.00415039 12.8631C0.00415039 16.1138 0.0184078 16.5225 0.0754375 17.8009C0.132467 19.0746 0.336824 19.9443 0.631477 20.7094C0.935635 21.4983 1.3491 22.1637 2.01445 22.829C2.67979 23.4944 3.34989 23.9031 4.13405 24.212C4.89445 24.5067 5.76415 24.711 7.04256 24.768C8.32098 24.8251 8.72494 24.8393 11.9804 24.8393C15.2358 24.8393 15.6398 24.8251 16.9182 24.768C18.1919 24.711 19.0616 24.5067 19.8267 24.212C20.6156 23.9078 21.281 23.4944 21.9463 22.829C22.6117 22.1637 23.0204 21.4936 23.3293 20.7094C23.6239 19.949 23.8283 19.0793 23.8853 17.8009C23.9424 16.5225 23.9566 16.1185 23.9566 12.8631C23.9566 9.60764 23.9424 9.20368 23.8853 7.92526C23.8283 6.6516 23.6239 5.7819 23.3293 5.01675C23.0251 4.22784 22.6117 3.56249 21.9463 2.89715C21.281 2.2318 20.6109 1.82309 19.8267 1.51418C19.0663 1.21952 18.1966 1.01517 16.9182 0.958136C15.635 0.905859 15.2263 0.891602 11.9756 0.891602Z" fill="#111827"/>
<path d="M11.9756 6.71348C8.58235 6.71348 5.82591 9.46516 5.82591 12.8632C5.82591 16.2612 8.58235 19.0129 11.9756 19.0129C15.3689 19.0129 18.1253 16.2564 18.1253 12.8632C18.1253 9.46991 15.3689 6.71348 11.9756 6.71348ZM11.9756 16.8553C9.77047 16.8553 7.98354 15.0683 7.98354 12.8632C7.98354 10.658 9.77047 8.8711 11.9756 8.8711C14.1808 8.8711 15.9677 10.658 15.9677 12.8632C15.9677 15.0683 14.1808 16.8553 11.9756 16.8553Z" fill="#111827"/>
<path d="M18.3677 7.90643C19.1604 7.90643 19.803 7.26385 19.803 6.47118C19.803 5.67852 19.1604 5.03594 18.3677 5.03594C17.575 5.03594 16.9325 5.67852 16.9325 6.47118C16.9325 7.26385 17.575 7.90643 18.3677 7.90643Z" fill="#111827"/>
</svg>
