<svg width="24" height="25" viewBox="0 0 24 25" fill="none" xmlns="http://www.w3.org/2000/svg">
<path d="M6.40836 4.49062C6.37831 3.12672 5.40298 2.08789 3.81918 2.08789C2.23538 2.08789 1.19995 3.12672 1.19995 4.49062C1.19995 5.82628 2.20478 6.89502 3.75908 6.89502H3.78867C5.40298 6.89502 6.40836 5.82628 6.40836 4.49062Z" fill="#111827"/>
<path d="M6.10342 8.7937H1.47371V22.7041H6.10342V8.7937Z" fill="#111827"/>
<path d="M17.4694 8.4671C20.516 8.4671 22.8 10.4557 22.8 14.7283L22.7998 22.7041H18.1702V15.2621C18.1702 13.3928 17.5003 12.1172 15.8243 12.1172C14.5453 12.1172 13.7834 12.9771 13.4488 13.8077C13.3264 14.1053 13.2964 14.52 13.2964 14.9358V22.7045H8.66608C8.66608 22.7045 8.7271 10.0994 8.66608 8.79411H13.2964V10.7644C13.9108 9.81724 15.0113 8.4671 17.4694 8.4671Z" fill="#111827"/>
</svg>
