<svg width="14" height="18" viewBox="0 0 14 18" fill="none" xmlns="http://www.w3.org/2000/svg">
<path d="M12.3885 6.96473C12.3885 8.59106 10.7809 11.634 9.3209 14.0623C8.24564 15.8506 5.74285 15.8506 4.66758 14.0623C3.20759 11.634 1.59998 8.59106 1.59998 6.96473C1.59998 3.98562 4.0145 1.57046 6.99424 1.57046C9.97398 1.57046 12.3885 3.98562 12.3885 6.96473Z" stroke="black" stroke-width="1.5" stroke-miterlimit="10"/>
<path d="M6.99415 9.49547C8.17229 9.49547 9.12735 8.54041 9.12735 7.36228C9.12735 6.18415 8.17229 5.22909 6.99415 5.22909C5.81602 5.22909 4.86096 6.18415 4.86096 7.36228C4.86096 8.54041 5.81602 9.49547 6.99415 9.49547Z" stroke="black" stroke-width="1.5" stroke-miterlimit="10"/>
</svg>
