<svg width="1210" height="235" viewBox="0 0 1210 235" fill="none" xmlns="http://www.w3.org/2000/svg">
<path d="M263 121.465V190.426C263 203.987 248.718 212.799 236.572 206.735L165.927 171.478L136.55 156.804C135.061 156.064 133.82 154.932 132.952 153.58C132.952 153.58 132.949 153.58 132.943 153.58L159.782 140.184C159.782 140.184 159.718 140.221 159.69 140.248C156.732 142.102 156.859 146.576 160.092 148.184L186.346 161.297L238.134 187.148C238.526 187.349 238.928 187.477 239.33 187.55C239.467 187.568 239.595 187.586 239.732 187.605C240.033 187.641 240.325 187.641 240.618 187.605C242.855 187.422 244.818 185.559 244.818 183.057V112.388L263 121.465Z" fill="url(#paint0_linear_22_1635)"/>
<path d="M198.337 120.889L198.309 120.907L132.934 153.553C132.011 152.119 131.5 150.42 131.5 148.658V61.4421C131.5 59.6614 132.021 57.9721 132.943 56.5293L160.092 70.0806L197.615 88.8186C210.619 95.4482 210.866 113.812 198.337 120.889Z" fill="url(#paint1_linear_22_1635)"/>
<path d="M263 19.6653V121.464L244.818 112.388V27.0437C244.818 24.5325 242.855 22.6788 240.617 22.4961C240.325 22.4687 240.033 22.4687 239.732 22.4961C239.202 22.5418 238.654 22.6879 238.133 22.9527L160.092 61.9173C156.841 63.5518 156.722 68.072 159.754 69.8983L132.952 56.5113C133.801 55.1873 135.006 54.0732 136.458 53.3336C136.486 53.3062 136.522 53.297 136.55 53.2788L236.572 3.34716C248.717 -2.71622 263 6.10491 263 19.6562V19.6653Z" fill="url(#paint2_linear_22_1635)"/>
<path d="M115.172 63.9626L65.5491 88.7367L0 121.464V19.6652C0 6.10481 14.2915 -2.71632 26.437 3.34707L115.172 47.6536C121.902 51.014 121.902 60.6022 115.172 63.9626Z" fill="url(#paint3_linear_22_1635)"/>
<path d="M115.172 162.438L26.437 206.745C14.2915 212.808 0 203.987 0 190.445V121.474L65.5491 88.7461C52.0886 95.467 52.0886 114.643 65.5491 121.364L115.172 146.138C121.902 149.499 121.902 159.087 115.172 162.447V162.438Z" fill="url(#paint4_linear_22_1635)"/>
<path style="mix-blend-mode:multiply" d="M65.5491 121.354C52.0886 114.634 52.0886 95.4572 65.5491 88.7363L0 121.464V155.872L67.3389 122.249L65.5491 121.354Z" fill="url(#paint5_linear_22_1635)"/>
<path style="mix-blend-mode:multiply" d="M186.346 161.287L165.927 171.478L136.55 156.803C135.061 156.063 133.82 154.931 132.952 153.58C132.952 153.58 132.949 153.58 132.943 153.58L159.782 140.184C159.782 140.184 159.718 140.22 159.69 140.248C156.732 142.101 156.859 146.576 160.092 148.183L186.346 161.296V161.287Z" fill="url(#paint6_linear_22_1635)"/>
<path d="M385.561 64.8724C384.501 63.8123 383.966 62.3987 383.966 60.6408V11.5018H367.411C363.769 11.5018 361.947 9.89794 361.947 6.6812C361.947 3.46446 363.769 1.85156 367.411 1.85156H412.273C415.916 1.85156 417.737 3.4554 417.737 6.67214C417.737 9.88888 415.916 11.4927 412.273 11.4927H395.709V60.6318C395.709 62.3897 395.175 63.8032 394.115 64.8634C393.054 65.9235 391.641 66.4582 389.883 66.4582C388.125 66.4582 386.621 65.9235 385.561 64.8634V64.8724Z" fill="black"/>
<path d="M465.326 38.7126V61.1029C465.326 62.8064 464.828 64.1384 463.822 65.108C462.816 66.0775 461.439 66.5668 459.681 66.5668C457.923 66.5668 456.528 66.0775 455.495 65.108C454.462 64.1384 453.945 62.8064 453.945 61.1029V38.7126C453.945 35.4959 453.293 33.149 451.988 31.663C450.683 30.1769 448.635 29.4339 445.845 29.4339C442.564 29.4339 439.946 30.4669 437.97 32.5238C435.995 34.5897 435.016 37.3444 435.016 40.8057V61.1029C435.016 62.8064 434.5 64.1384 433.467 65.108C432.434 66.0775 431.039 66.5668 429.281 66.5668C427.523 66.5668 426.136 66.0775 425.14 65.108C424.143 64.1384 423.635 62.8064 423.635 61.1029V6.68114C423.635 5.10448 424.17 3.82685 425.23 2.8573C426.29 1.88774 427.668 1.39844 429.371 1.39844C431.075 1.39844 432.434 1.8515 433.467 2.76668C434.5 3.67281 435.016 4.92326 435.016 6.49991V27.6941C436.53 25.3292 438.55 23.526 441.069 22.2755C443.588 21.0341 446.452 20.4089 449.668 20.4089C460.107 20.4089 465.317 26.5071 465.317 38.7035L465.326 38.7126Z" fill="black"/>
<path d="M514.603 54.9959C515.238 55.7842 515.555 56.8444 515.555 58.1855C515.555 60.0702 514.431 61.6469 512.184 62.9154C510.118 64.0662 507.78 64.9904 505.18 65.6882C502.57 66.3859 500.087 66.7302 497.722 66.7302C490.564 66.7302 484.892 64.6642 480.705 60.5414C476.519 56.4185 474.426 50.7734 474.426 43.615C474.426 39.0663 475.332 35.034 477.153 31.5092C478.975 27.9934 481.539 25.2569 484.846 23.3178C488.154 21.3787 491.896 20.4092 496.082 20.4092C500.268 20.4092 503.576 21.2881 506.548 23.046C509.52 24.8039 511.821 27.2957 513.462 30.5125C515.102 33.7292 515.917 37.5168 515.917 41.8843C515.917 44.4939 514.766 45.7988 512.456 45.7988H485.607C485.97 49.985 487.157 53.0659 489.159 55.0322C491.162 57.0075 494.071 57.9861 497.894 57.9861C499.833 57.9861 501.546 57.7415 503.032 57.2612C504.518 56.7719 506.204 56.1104 508.079 55.2587C509.901 54.2891 511.233 53.7998 512.084 53.7998C513.117 53.7998 513.951 54.1985 514.585 54.9868L514.603 54.9959ZM488.942 31.337C487.093 33.2761 485.988 36.067 485.616 39.7096H506.185C506.059 36.0126 505.152 33.2036 503.458 31.2917C501.754 29.3798 499.389 28.4284 496.363 28.4284C493.337 28.4284 490.799 29.3979 488.942 31.337Z" fill="black"/>
<path d="M440.201 160.37C443.59 164.919 445.284 170.491 445.284 177.061C445.284 186.167 442.022 193.299 435.498 198.454C428.974 203.61 419.994 206.193 408.559 206.193H369.406C366.47 206.193 364.168 205.386 362.501 203.764C360.834 202.151 360 199.868 360 196.932V108.476C360 105.541 360.834 103.266 362.501 101.644C364.168 100.031 366.47 99.2158 369.406 99.2158H407.037C418.164 99.2158 426.89 101.671 433.215 106.574C439.54 111.485 442.702 118.335 442.702 127.133C442.702 132.797 441.207 137.708 438.226 141.849C435.244 145.999 431.122 149.034 425.857 150.955C432.028 152.677 436.803 155.812 440.201 160.361V160.37ZM379.119 144.286H403.856C417.312 144.286 424.036 139.276 424.036 129.263C424.036 124.207 422.368 120.464 419.025 118.036C415.681 115.608 410.625 114.393 403.847 114.393H379.119V144.286ZM421.915 187.228C425.15 184.7 426.772 180.758 426.772 175.394C426.772 170.029 425.123 166.033 421.843 163.406C418.554 160.778 413.425 159.464 406.439 159.464H379.119V191.024H406.439C413.516 191.024 418.681 189.765 421.915 187.228Z" fill="black"/>
<path d="M517.13 137.835C522.141 142.945 524.642 150.711 524.642 161.131V198.156C524.642 200.883 523.836 203.04 522.214 204.607C520.592 206.175 518.372 206.963 515.536 206.963C512.899 206.963 510.76 206.157 509.084 204.535C507.417 202.922 506.583 200.792 506.583 198.165V194.83C504.862 198.772 502.152 201.862 498.464 204.091C494.767 206.311 490.5 207.425 485.643 207.425C480.786 207.425 476.183 206.41 472.141 204.39C468.091 202.369 464.911 199.587 462.582 196.044C460.253 192.501 459.093 188.56 459.093 184.21C459.093 178.746 460.48 174.451 463.27 171.307C466.052 168.172 470.583 165.898 476.853 164.475C483.124 163.061 491.777 162.355 502.805 162.355H506.601V158.866C506.601 153.91 505.541 150.294 503.412 148.02C501.291 145.745 497.848 144.604 493.091 144.604C490.155 144.604 487.174 145.039 484.139 145.89C481.103 146.751 477.515 147.993 473.365 149.605C470.728 150.919 468.807 151.581 467.602 151.581C465.78 151.581 464.285 150.919 463.126 149.605C461.957 148.292 461.377 146.57 461.377 144.45C461.377 142.728 461.803 141.242 462.663 139.973C463.524 138.714 464.965 137.518 466.986 136.412C470.529 134.491 474.751 132.978 479.653 131.864C484.555 130.749 489.394 130.196 494.142 130.196C504.463 130.196 512.129 132.752 517.13 137.862V137.835ZM501.808 188.668C504.997 185.28 506.592 180.903 506.592 175.539V172.349H503.856C497.078 172.349 491.813 172.648 488.071 173.264C484.329 173.871 481.647 174.932 480.034 176.454C478.412 177.967 477.605 180.042 477.605 182.679C477.605 185.914 478.738 188.578 481.021 190.644C483.296 192.719 486.105 193.752 489.439 193.752C494.496 193.752 498.618 192.057 501.808 188.668Z" fill="black"/>
<path d="M591.57 132.144C593.083 133.458 593.844 135.434 593.844 138.061C593.844 140.689 593.183 142.819 591.869 144.132C590.555 145.446 588.172 146.307 584.738 146.715L580.18 147.168C574.209 147.775 569.832 149.805 567.059 153.239C564.278 156.682 562.882 160.977 562.882 166.133V198.001C562.882 200.937 561.976 203.184 560.155 204.752C558.333 206.32 556.059 207.108 553.323 207.108C550.586 207.108 548.339 206.32 546.572 204.752C544.796 203.184 543.917 200.937 543.917 198.001V139.276C543.917 136.439 544.805 134.265 546.572 132.751C548.339 131.229 550.541 130.477 553.169 130.477C555.796 130.477 557.926 131.211 559.548 132.679C561.161 134.147 561.976 136.249 561.976 138.977V145.048C563.897 140.599 566.751 137.155 570.548 134.727C574.345 132.298 578.567 130.93 583.216 130.631L585.336 130.477C587.964 130.278 590.039 130.83 591.561 132.144H591.57Z" fill="black"/>
<path d="M654.997 199.832C654.997 202.26 654.009 204.109 652.034 205.368C650.058 206.628 647.259 207.163 643.616 206.963L639.52 206.664C622.521 205.45 614.022 196.343 614.022 179.354V146.271H606.438C603.701 146.271 601.608 145.664 600.14 144.45C598.672 143.236 597.938 141.469 597.938 139.14C597.938 136.811 598.672 135.044 600.14 133.83C601.608 132.616 603.701 132.009 606.438 132.009H614.022V118.045C614.022 115.309 614.883 113.143 616.604 111.521C618.326 109.899 620.646 109.093 623.582 109.093C626.517 109.093 628.692 109.899 630.414 111.521C632.135 113.143 632.996 115.318 632.996 118.045V132.009H645.899C648.636 132.009 650.729 132.616 652.197 133.83C653.665 135.044 654.399 136.811 654.399 139.14C654.399 141.469 653.665 143.236 652.197 144.45C650.729 145.664 648.636 146.271 645.899 146.271H632.996V180.713C632.996 188.197 636.43 192.193 643.317 192.701L647.413 193C652.469 193.308 654.997 195.582 654.997 199.832Z" fill="black"/>
<path d="M727.758 187.834C728.819 189.148 729.353 190.924 729.353 193.144C729.353 196.279 727.478 198.907 723.735 201.037C720.292 202.958 716.396 204.507 712.055 205.667C707.706 206.827 703.556 207.416 699.614 207.416C687.672 207.416 678.221 203.981 671.235 197.095C664.257 190.217 660.769 180.812 660.769 168.869C660.769 161.285 662.282 154.552 665.318 148.69C668.353 142.827 672.621 138.269 678.139 135.035C683.648 131.8 689.901 130.178 696.878 130.178C703.855 130.178 709.373 131.646 714.33 134.581C719.286 137.517 723.128 141.667 725.865 147.023C728.592 152.387 729.96 158.703 729.96 165.988C729.96 170.337 728.039 172.512 724.197 172.512H679.435C680.042 179.489 682.017 184.627 685.352 187.916C688.686 191.205 693.543 192.845 699.922 192.845C703.157 192.845 706.021 192.447 708.494 191.631C710.968 190.825 713.777 189.71 716.912 188.296C719.948 186.684 722.168 185.868 723.59 185.868C725.312 185.868 726.698 186.53 727.768 187.843L727.758 187.834ZM684.962 148.382C681.872 151.617 680.033 156.274 679.426 162.345H713.723C713.523 156.174 712.001 151.499 709.174 148.309C706.338 145.12 702.396 143.525 697.34 143.525C692.284 143.525 688.061 145.147 684.971 148.382H684.962Z" fill="black"/>
<path d="M793.08 132.144C794.594 133.458 795.355 135.434 795.355 138.061C795.355 140.689 794.693 142.819 793.379 144.132C792.065 145.446 789.682 146.307 786.248 146.715L781.69 147.168C775.719 147.775 771.342 149.805 768.57 153.239C765.788 156.682 764.392 160.977 764.392 166.133V198.001C764.392 200.937 763.486 203.184 761.665 204.752C759.844 206.32 757.569 207.108 754.833 207.108C752.096 207.108 749.849 206.32 748.082 204.752C746.306 203.184 745.427 200.937 745.427 198.001V139.276C745.427 136.439 746.315 134.265 748.082 132.751C749.849 131.229 752.051 130.477 754.679 130.477C757.307 130.477 759.436 131.211 761.058 132.679C762.671 134.147 763.486 136.249 763.486 138.977V145.048C765.407 140.599 768.262 137.155 772.058 134.727C775.855 132.298 780.077 130.93 784.726 130.631L786.846 130.477C789.474 130.278 791.549 130.83 793.071 132.144H793.08Z" fill="black"/>
<path d="M877.607 204.453C870.675 202.378 865.039 199.569 860.69 196.035C858.361 194.313 857.201 191.885 857.201 188.75C857.201 186.629 857.835 184.781 859.095 183.213C860.354 181.646 861.85 180.857 863.571 180.857C865.392 180.857 867.468 181.564 869.787 182.978C874.137 186.113 878.685 188.387 883.442 189.81C888.2 191.232 893.455 191.93 899.227 191.93C906.612 191.93 912.275 190.643 916.226 188.061C920.168 185.478 922.143 181.718 922.143 176.752C922.143 172.91 920.295 169.947 916.607 167.872C912.91 165.797 906.766 163.804 898.167 161.874C889.269 159.953 882.029 157.724 876.465 155.196C870.902 152.668 866.706 149.433 863.87 145.482C861.034 141.54 859.621 136.53 859.621 130.459C859.621 124.388 861.387 118.57 864.93 113.614C868.473 108.657 873.403 104.788 879.727 102.006C886.043 99.2245 893.156 97.8291 901.048 97.8291C915.51 97.8291 927.299 101.671 936.405 109.364C937.719 110.479 938.653 111.566 939.214 112.626C939.767 113.686 940.048 115.027 940.048 116.649C940.048 118.77 939.414 120.618 938.154 122.186C936.886 123.753 935.4 124.542 933.678 124.542C932.663 124.542 931.73 124.388 930.869 124.089C930.008 123.78 928.876 123.228 927.453 122.421C923.303 119.386 919.28 117.139 915.392 115.671C911.496 114.203 906.721 113.469 901.048 113.469C894.171 113.469 888.734 114.864 884.738 117.646C880.742 120.428 878.74 124.297 878.74 129.253C878.74 133.404 880.507 136.593 884.05 138.813C887.593 141.042 893.609 143.117 902.109 145.038C911.116 147.059 918.419 149.315 924.037 151.789C929.655 154.272 933.95 157.425 936.94 161.276C939.921 165.118 941.416 169.929 941.416 175.692C941.416 181.963 939.667 187.508 936.179 192.311C932.69 197.113 927.779 200.864 921.454 203.537C915.13 206.22 907.872 207.561 899.68 207.561C891.489 207.561 884.53 206.519 877.598 204.453H877.607Z" fill="black"/>
<path d="M1027.3 160.678V198.011C1027.3 200.847 1026.46 203.067 1024.8 204.689C1023.13 206.302 1020.83 207.117 1017.89 207.117C1014.96 207.117 1012.63 206.311 1010.91 204.689C1009.19 203.076 1008.33 200.847 1008.33 198.011V160.678C1008.33 155.314 1007.24 151.4 1005.07 148.917C1002.9 146.443 999.479 145.202 994.831 145.202C989.367 145.202 984.99 146.923 981.701 150.358C978.412 153.801 976.772 158.404 976.772 164.167V198.011C976.772 200.847 975.911 203.067 974.189 204.689C972.467 206.302 970.139 207.117 967.212 207.117C964.285 207.117 961.975 206.311 960.307 204.689C958.64 203.076 957.806 200.847 957.806 198.011V107.262C957.806 104.635 958.694 102.505 960.461 100.892C962.228 99.2703 964.53 98.4639 967.366 98.4639C970.202 98.4639 972.477 99.225 974.198 100.738C975.92 102.251 976.781 104.326 976.781 106.963V142.32C979.309 138.379 982.67 135.37 986.875 133.295C991.07 131.22 995.855 130.187 1001.22 130.187C1018.62 130.187 1027.32 140.354 1027.32 160.687L1027.3 160.678Z" fill="black"/>
<path d="M1060.45 202.713C1054.74 199.577 1050.31 195.074 1047.18 189.211C1044.04 183.349 1042.48 176.517 1042.48 168.724C1042.48 160.931 1044.04 154.135 1047.18 148.318C1050.31 142.501 1054.74 138.024 1060.45 134.889C1066.17 131.754 1072.82 130.187 1080.41 130.187C1087.99 130.187 1094.64 131.754 1100.36 134.889C1106.08 138.024 1110.47 142.501 1113.56 148.318C1116.64 154.135 1118.19 160.94 1118.19 168.724C1118.19 176.508 1116.65 183.34 1113.56 189.211C1110.47 195.083 1106.08 199.577 1100.36 202.713C1094.64 205.848 1087.99 207.415 1080.41 207.415C1072.82 207.415 1066.16 205.848 1060.45 202.713ZM1094.37 186.629C1097.61 182.588 1099.23 176.616 1099.23 168.724C1099.23 160.832 1097.61 154.987 1094.37 150.891C1091.14 146.796 1086.48 144.748 1080.41 144.748C1074.34 144.748 1069.66 146.796 1066.37 150.891C1063.08 154.987 1061.44 160.931 1061.44 168.724C1061.44 176.517 1063.05 182.588 1066.3 186.629C1069.53 190.679 1074.19 192.7 1080.26 192.7C1086.33 192.7 1091.14 190.679 1094.38 186.629H1094.37Z" fill="black"/>
<path d="M1193.53 135.035C1198.55 138.269 1202.43 142.845 1205.22 148.771C1208.01 154.688 1209.4 161.493 1209.4 169.177C1209.4 176.861 1208.01 183.594 1205.22 189.357C1202.44 195.12 1198.57 199.578 1193.62 202.713C1188.66 205.848 1182.94 207.416 1176.47 207.416C1171.21 207.416 1166.51 206.301 1162.36 204.081C1158.21 201.861 1155.02 198.771 1152.8 194.821V225.774C1152.8 228.402 1151.93 230.477 1150.21 231.999C1148.49 233.512 1146.22 234.273 1143.38 234.273C1140.54 234.273 1138.24 233.467 1136.48 231.845C1134.7 230.223 1133.82 228.102 1133.82 225.475V139.429C1133.82 136.702 1134.65 134.527 1136.32 132.905C1137.99 131.292 1140.24 130.477 1143.07 130.477C1145.91 130.477 1148.18 131.283 1149.9 132.905C1151.63 134.527 1152.49 136.702 1152.49 139.429V143.226C1154.71 139.076 1157.92 135.868 1162.12 133.594C1166.31 131.319 1171.1 130.178 1176.46 130.178C1182.83 130.178 1188.52 131.8 1193.53 135.035ZM1185.42 186.557C1188.75 182.461 1190.43 176.671 1190.43 169.177C1190.43 161.684 1188.76 155.522 1185.42 151.272C1182.08 147.023 1177.42 144.902 1171.45 144.902C1165.48 144.902 1160.71 146.977 1157.42 151.127C1154.13 155.277 1152.49 161.194 1152.49 168.878C1152.49 176.562 1154.13 182.334 1157.42 186.484C1160.71 190.634 1165.38 192.709 1171.45 192.709C1177.52 192.709 1182.07 190.661 1185.42 186.566V186.557Z" fill="black"/>
<defs>
<linearGradient id="paint0_linear_22_1635" x1="127.391" y1="151.16" x2="269.849" y2="160.293" gradientUnits="userSpaceOnUse">
<stop stop-color="#FFA03B"/>
<stop offset="1" stop-color="#FF5E5A"/>
</linearGradient>
<linearGradient id="paint1_linear_22_1635" x1="119.628" y1="104.589" x2="212.318" y2="104.589" gradientUnits="userSpaceOnUse">
<stop offset="0.0645126" stop-color="#F7DE28"/>
<stop offset="1" stop-color="#EDB71A"/>
</linearGradient>
<linearGradient id="paint2_linear_22_1635" x1="132.952" y1="61.4333" x2="271.675" y2="61.6706" gradientUnits="userSpaceOnUse">
<stop stop-color="#01F0EC"/>
<stop offset="1" stop-color="#01CECA"/>
</linearGradient>
<linearGradient id="paint3_linear_22_1635" x1="120.542" y1="56.6482" x2="-8.67534" y2="58.018" gradientUnits="userSpaceOnUse">
<stop offset="0.04" stop-color="#FFA03B"/>
<stop offset="1" stop-color="#FF5E5A"/>
</linearGradient>
<linearGradient id="paint4_linear_22_1635" x1="120.085" y1="151.16" x2="-2.28298" y2="150.704" gradientUnits="userSpaceOnUse">
<stop stop-color="#0CEFEB"/>
<stop offset="0.983555" stop-color="#01CCC8"/>
</linearGradient>
<linearGradient id="paint5_linear_22_1635" x1="40.3814" y1="138.357" x2="26.4287" y2="108.889" gradientUnits="userSpaceOnUse">
<stop offset="0.13" stop-color="#7FFEFB" stop-opacity="0"/>
<stop offset="1" stop-color="#00BAB6"/>
</linearGradient>
<linearGradient id="paint6_linear_22_1635" x1="173.644" y1="175.605" x2="147.756" y2="142.036" gradientUnits="userSpaceOnUse">
<stop offset="0.19" stop-color="#FEED66" stop-opacity="0"/>
<stop offset="0.97" stop-color="#AD9800"/>
</linearGradient>
</defs>
</svg>
