<svg width="25" height="24" viewBox="0 0 25 24" fill="none" xmlns="http://www.w3.org/2000/svg">
<path d="M16.5893 9.33306C16.9232 8.66218 17.0803 7.91713 17.0456 7.16853C17.011 6.41993 16.7857 5.69259 16.3911 5.05545C15.9966 4.41832 15.4459 3.89251 14.7912 3.52787C14.1364 3.16322 13.3995 2.97183 12.6501 2.97183C11.9007 2.97183 11.1637 3.16322 10.509 3.52787C9.85425 3.89251 9.30352 4.41832 8.90898 5.05545C8.51443 5.69259 8.28914 6.41993 8.25447 7.16853C8.2198 7.91713 8.37689 8.66218 8.71085 9.33306" stroke="#999999" stroke-width="1.2" stroke-miterlimit="10"/>
<path d="M12.65 14.8164C13.3138 14.8164 13.852 14.2783 13.852 13.6144C13.852 12.9506 13.3138 12.4125 12.65 12.4125C11.9861 12.4125 11.448 12.9506 11.448 13.6144C11.448 14.2783 11.9861 14.8164 12.65 14.8164Z" stroke="#999999" stroke-width="1.2" stroke-miterlimit="10"/>
<path d="M12.6499 14.8166V16.4653" stroke="#999999" stroke-width="1.2" stroke-miterlimit="10" stroke-linecap="round"/>
<path d="M12.65 20.8889C16.2122 20.8889 19.1 18.0012 19.1 14.4389C19.1 10.8767 16.2122 7.98892 12.65 7.98892C9.08772 7.98892 6.19995 10.8767 6.19995 14.4389C6.19995 18.0012 9.08772 20.8889 12.65 20.8889Z" stroke="#999999" stroke-width="1.2" stroke-miterlimit="10"/>
</svg>
