<svg width="24" height="25" viewBox="0 0 24 25" fill="none" xmlns="http://www.w3.org/2000/svg">
<path d="M8.60217 24.7636C9.7752 25.118 10.9604 25.3257 12.219 25.3257C15.4597 25.3257 18.5676 24.0383 20.8591 21.7468C23.1506 19.4553 24.438 16.3474 24.438 13.1067C24.438 11.5021 24.1219 9.91316 23.5079 8.43068C22.8938 6.94821 21.9938 5.60119 20.8591 4.46656C19.7245 3.33192 18.3775 2.43187 16.895 1.81781C15.4125 1.20375 13.8236 0.887695 12.219 0.887695C10.6144 0.887695 9.02546 1.20375 7.54299 1.81781C6.06051 2.43187 4.7135 3.33192 3.57886 4.46656C1.28735 6.75806 0 9.86601 0 13.1067C0 18.2998 3.26247 22.7597 7.86903 24.5192C7.75906 23.5661 7.64909 21.9899 7.86903 20.9024L9.27422 14.8662C9.27422 14.8662 8.91987 14.1575 8.91987 13.0334C8.91987 11.3472 9.9707 10.0886 11.1682 10.0886C12.219 10.0886 12.7078 10.8584 12.7078 11.8481C12.7078 12.899 12.0113 14.4019 11.6569 15.8437C11.4492 17.0412 12.2923 18.092 13.5142 18.092C15.6892 18.092 17.3754 15.7704 17.3754 12.4957C17.3754 9.56318 15.2737 7.55927 12.2557 7.55927C8.80989 7.55927 6.78154 10.1253 6.78154 12.8257C6.78154 13.8765 7.12367 14.9395 7.68575 15.636C7.79572 15.7093 7.79572 15.8071 7.75906 15.9904L7.40471 17.3222C7.40471 17.53 7.2703 17.6033 7.06258 17.4567C5.49855 16.7724 4.59434 14.5485 4.59434 12.7523C4.59434 8.89114 7.3314 5.38428 12.61 5.38428C16.8133 5.38428 20.088 8.40238 20.088 12.4102C20.088 16.6135 17.4854 19.986 13.7586 19.986C12.5733 19.986 11.4125 19.3506 10.9971 18.6052L10.1784 21.5011C9.89739 22.552 9.12759 23.9572 8.60217 24.8003V24.7636Z" fill="black"/>
</svg>
