<svg width="180" height="147" viewBox="0 0 180 147" fill="none" xmlns="http://www.w3.org/2000/svg">
<g opacity="0.3" clip-path="url(#clip0_68_5000)">
<path fill-rule="evenodd" clip-rule="evenodd" d="M0.0517578 124.041C26.8858 111.286 40.3026 96.2994 40.3026 79.0803C28.8651 77.8048 19.4074 73.2875 11.929 65.5282C4.45071 57.7689 0.711612 48.7875 0.711612 38.5835C0.711612 27.7418 4.34074 18.6009 11.5991 11.1605C18.8575 3.72013 27.9853 0 38.9829 0C51.3001 0 61.9676 4.83618 70.9856 14.5087C80.0036 24.1812 84.5125 35.9262 84.5125 49.744C84.5125 91.1976 60.5382 123.616 12.5889 147L0.0517578 124.041ZM94.7501 124.041C121.804 111.286 135.331 96.2994 135.331 79.0803C123.673 77.8048 114.106 73.2875 106.627 65.5282C99.1491 57.7689 95.41 48.7875 95.41 38.5835C95.41 27.7418 99.0941 18.6009 106.462 11.1605C113.831 3.72013 123.014 0 134.011 0C146.328 0 156.941 4.83618 165.849 14.5087C174.757 24.1812 179.211 35.9262 179.211 49.744C179.211 91.1976 155.347 123.616 107.617 147L94.7501 124.041Z" fill="white"/>
</g>
<defs>
<clipPath id="clip0_68_5000">
<rect width="179.948" height="147" fill="white" transform="translate(0.0517578)"/>
</clipPath>
</defs>
</svg>
