<svg width="24" height="21" viewBox="0 0 24 21" fill="none" xmlns="http://www.w3.org/2000/svg">
<path d="M24 2.50297C23.1013 2.91919 22.148 3.19244 21.172 3.31365C22.1871 2.67561 22.968 1.6673 23.3355 0.464092C22.369 1.06398 21.3116 1.48662 20.2089 1.71375C19.2783 0.674231 17.9769 0.0854264 16.6153 0.0878984C13.8972 0.0878984 11.6912 2.39311 11.6912 5.23674C11.6912 5.6408 11.7347 6.03461 11.8198 6.41065C7.72705 6.19556 4.09978 4.14644 1.67078 1.03055C1.24665 1.79014 1.00473 2.67561 1.00473 3.61954C1.00473 5.40522 1.87366 6.98158 3.19457 7.90517C2.4125 7.8801 1.64759 7.65922 0.964005 7.26105V7.32671C0.964005 9.82089 2.66143 11.9022 4.91281 12.3763C4.18772 12.5816 3.42747 12.6117 2.6896 12.4643C3.31645 14.5104 5.13544 15.9989 7.28914 16.0421C5.60428 17.421 3.48151 18.2458 1.17408 18.2458C0.781722 18.2453 0.389716 18.2212 0 18.1737C2.17881 19.6343 4.76751 20.4879 7.54791 20.4879C16.6046 20.4879 21.5563 12.6399 21.5563 5.8341C21.5563 5.61149 21.5563 5.38889 21.541 5.16788C22.5045 4.43873 23.3366 3.53642 23.9985 2.50297H24Z" fill="#111827"/>
</svg>
