<svg width="24" height="24" viewBox="0 0 24 24" fill="none" xmlns="http://www.w3.org/2000/svg">
<path d="M11.753 18.9908C15.659 18.9908 18.8254 15.8244 18.8254 11.9184C18.8254 8.0125 15.659 4.8461 11.753 4.8461C7.84706 4.8461 4.68066 8.0125 4.68066 11.9184C4.68066 15.8244 7.84706 18.9908 11.753 18.9908Z" stroke="#999999" stroke-width="0.78" stroke-miterlimit="10"/>
<path d="M11.7471 19.005C13.4784 19.005 14.8819 15.8386 14.8819 11.9327C14.8819 8.0267 13.4784 4.86031 11.7471 4.86031C10.0158 4.86031 8.6123 8.0267 8.6123 11.9327C8.6123 15.8386 10.0158 19.005 11.7471 19.005Z" stroke="#999999" stroke-width="0.78" stroke-miterlimit="10"/>
<path d="M5.76758 8.14288H17.7517" stroke="#999999" stroke-width="0.78" stroke-miterlimit="10"/>
<path d="M5.76758 15.5663H17.7517" stroke="#999999" stroke-width="0.78" stroke-miterlimit="10"/>
<path d="M4.62939 11.9184H18.8663" stroke="#999999" stroke-width="0.78" stroke-miterlimit="10"/>
<path d="M11.748 4.79996V19.0369" stroke="#999999" stroke-width="0.78" stroke-miterlimit="10"/>
</svg>
