<svg width="24" height="24" viewBox="0 0 24 24" fill="none" xmlns="http://www.w3.org/2000/svg">
<path d="M12.9909 10.3552L14.3159 10.6186C15.5133 10.8567 16.7108 11.0948 17.9084 11.333C18.3352 11.4183 18.6002 11.7444 18.6002 12.1833C18.6002 14.0726 18.6002 15.9618 18.6002 17.8511C18.6002 18.3642 18.2351 18.7219 17.7162 18.7219C16.025 18.7219 14.3337 18.7207 12.6421 18.7182C11.0648 18.7182 9.48741 18.7196 7.91005 18.7225H6.05715C5.48553 18.7225 5.13623 18.3758 5.13623 17.8079V6.27741C5.13623 5.65363 5.56192 5.28747 6.18149 5.38178C7.85228 5.63466 9.52271 5.88825 11.1928 6.14254C11.5516 6.19522 11.9109 6.25054 12.2702 6.30638C12.4565 6.33078 12.6289 6.41809 12.7588 6.55386C12.8888 6.68963 12.9684 6.8657 12.9846 7.05292C12.9906 7.11824 12.9933 7.18383 12.9925 7.24943C12.9925 8.22725 12.9925 9.20471 12.9925 10.1818L12.9909 10.3552ZM12.4293 18.1561V7.22572C12.4293 6.96862 12.3613 6.87748 12.1316 6.84218C11.3663 6.72452 10.6005 6.60861 9.83407 6.49447C8.58335 6.30586 7.33263 6.1176 6.08191 5.92969C5.83166 5.89176 5.69467 6.00187 5.69467 6.25686C5.69467 10.1091 5.69467 13.9616 5.69467 17.8142C5.69467 18.0571 5.80322 18.1635 6.04978 18.164C6.45299 18.164 6.8569 18.164 7.26151 18.164C7.29892 18.164 7.33631 18.1587 7.38268 18.1551V17.987C7.38268 17.2199 7.38268 16.4528 7.38268 15.6857C7.38268 15.1457 7.73409 14.7991 8.27252 14.798C8.79409 14.798 9.31549 14.798 9.83671 14.798C10.4052 14.798 10.7439 15.1368 10.7445 15.7047C10.7445 16.4718 10.7445 17.2387 10.7445 18.0054V18.1566L12.4293 18.1561ZM12.9993 18.1645H17.6608C17.948 18.1645 18.0428 18.0671 18.0428 17.7747C18.0428 15.9381 18.0428 14.1017 18.0428 12.2655C18.0428 11.9857 17.9801 11.912 17.7067 11.8577L13.896 11.1028C13.601 11.0443 13.3054 10.9884 13.0004 10.9294L12.9993 18.1645ZM10.1855 18.1577V18.0333C10.1855 17.2533 10.1855 16.473 10.1855 15.6926C10.1855 15.4576 10.0843 15.3559 9.84988 15.3554H8.31151C8.02912 15.3554 7.94272 15.4418 7.94272 15.7242C7.94272 16.4913 7.94272 17.2584 7.94272 18.0254C7.94272 18.0676 7.94692 18.1103 7.94956 18.1582L10.1855 18.1577Z" fill="black" stroke="black" stroke-width="0.5"/>
<path d="M7.65501 8.6214C7.47958 8.6214 7.30414 8.6214 7.12817 8.6214C6.94167 8.61877 6.81522 8.4997 6.81944 8.33533C6.82365 8.17095 6.94378 8.06611 7.12712 8.06506C7.48221 8.06295 7.83712 8.06295 8.19186 8.06506C8.3752 8.06506 8.49637 8.17464 8.50058 8.33427C8.5048 8.49391 8.37889 8.61877 8.19292 8.6214C8.00694 8.62404 7.83467 8.6214 7.65501 8.6214Z" fill="black" stroke="black" stroke-width="0.5"/>
<path d="M10.4751 8.0641C10.6548 8.0641 10.8344 8.06146 11.0136 8.0641C11.1927 8.06673 11.3023 8.17737 11.3044 8.33647C11.3059 8.374 11.2997 8.41144 11.2861 8.44643C11.2724 8.48143 11.2517 8.51322 11.2252 8.5398C11.1986 8.56638 11.1669 8.58718 11.1319 8.60087C11.0969 8.61457 11.0595 8.62088 11.022 8.61939C10.65 8.62431 10.2777 8.62431 9.90508 8.61939C9.86759 8.62036 9.83031 8.61348 9.79564 8.59921C9.76096 8.58493 9.72965 8.56357 9.70371 8.53649C9.67777 8.50941 9.65776 8.4772 9.64499 8.44194C9.63222 8.40668 9.62696 8.36915 9.62955 8.33173C9.63323 8.17368 9.74228 8.06831 9.91034 8.06515C10.0984 8.06146 10.2865 8.0641 10.4751 8.0641Z" fill="black" stroke="black" stroke-width="0.5"/>
<path d="M7.66041 9.74786C7.8448 9.74786 8.0292 9.7447 8.21254 9.74786C8.249 9.74786 8.28511 9.75505 8.31879 9.769C8.35248 9.78295 8.38309 9.80341 8.40887 9.82919C8.43465 9.85497 8.4551 9.88557 8.46905 9.91926C8.483 9.95294 8.49018 9.98905 8.49018 10.0255C8.49018 10.062 8.483 10.0981 8.46905 10.1318C8.4551 10.1654 8.43465 10.1961 8.40887 10.2218C8.38309 10.2476 8.35248 10.2681 8.31879 10.282C8.28511 10.296 8.249 10.3032 8.21254 10.3032C7.8448 10.3074 7.47601 10.3074 7.10617 10.3032C7.06867 10.3046 7.03127 10.2984 6.9962 10.2851C6.96113 10.2717 6.92912 10.2514 6.90207 10.2254C6.87502 10.1994 6.85351 10.1682 6.83879 10.1336C6.82407 10.0991 6.81645 10.062 6.81641 10.0245C6.8163 9.98707 6.82379 9.95005 6.83841 9.91564C6.85304 9.88124 6.87449 9.85016 6.90149 9.82429C6.92849 9.79843 6.96046 9.77832 6.99546 9.76518C7.03047 9.75204 7.06777 9.74615 7.10512 9.74786C7.29478 9.7447 7.47654 9.74786 7.66041 9.74786Z" fill="black" stroke="black" stroke-width="0.5"/>
<path d="M10.4735 9.74723C10.6526 9.74723 10.8323 9.74723 11.0119 9.74723C11.1916 9.74723 11.3012 9.85839 11.3043 10.0175C11.3075 10.1766 11.19 10.3009 11.0103 10.3025C10.6468 10.3064 10.2835 10.3064 9.9203 10.3025C9.74065 10.3025 9.62579 10.1819 9.62948 10.0159C9.63317 9.84997 9.74381 9.74986 9.92135 9.7467C10.0989 9.74354 10.2891 9.74723 10.4735 9.74723Z" fill="black" stroke="black" stroke-width="0.5"/>
<path d="M7.65802 11.4311C7.84189 11.4311 8.02681 11.4285 8.21015 11.4311C8.38085 11.4343 8.49992 11.5492 8.5015 11.7046C8.50209 11.7421 8.49506 11.7794 8.48084 11.8141C8.46662 11.8489 8.4455 11.8803 8.41875 11.9067C8.39201 11.933 8.36021 11.9537 8.32526 11.9674C8.29031 11.9811 8.25295 11.9876 8.21543 11.9864C7.84664 11.9912 7.47785 11.9906 7.1117 11.9864C7.07423 11.988 7.03685 11.982 7.00174 11.9688C6.96663 11.9557 6.9345 11.9356 6.90729 11.9098C6.88007 11.884 6.85831 11.8531 6.84329 11.8187C6.82826 11.7844 6.82029 11.7473 6.81982 11.7098C6.81982 11.5518 6.94047 11.4332 7.11907 11.4306C7.29767 11.428 7.47837 11.4311 7.65802 11.4311Z" fill="black" stroke="black" stroke-width="0.5"/>
<path d="M10.4718 11.4311C10.6515 11.4311 10.8311 11.4285 11.0103 11.4311C11.1894 11.4337 11.3006 11.5407 11.3048 11.6998C11.309 11.8589 11.192 11.9848 11.0129 11.9869C10.6494 11.9908 10.2859 11.9908 9.92235 11.9869C9.74217 11.9869 9.62732 11.8673 9.62942 11.7019C9.63153 11.5365 9.74322 11.4343 9.92024 11.4311C10.0973 11.4279 10.288 11.4311 10.4718 11.4311Z" fill="black" stroke="black" stroke-width="0.5"/>
<path d="M7.66326 13.6723C7.48782 13.6723 7.31238 13.6723 7.13642 13.6723C6.94728 13.6723 6.82031 13.5564 6.82031 13.3925C6.82031 13.2287 6.94465 13.1159 7.13642 13.1154C7.48765 13.1133 7.83887 13.1133 8.1901 13.1154C8.38082 13.1154 8.50621 13.2276 8.50621 13.3915C8.50621 13.5553 8.38029 13.6696 8.1901 13.6723C8.01203 13.6739 7.83659 13.6723 7.66326 13.6723Z" fill="black" stroke="black" stroke-width="0.5"/>
<path d="M10.4702 13.1144C10.6499 13.1144 10.8296 13.1144 11.0092 13.1144C11.1889 13.1144 11.2995 13.2229 11.3048 13.3815C11.3068 13.4201 11.3007 13.4587 11.2869 13.4947C11.273 13.5308 11.2516 13.5635 11.2242 13.5908C11.1968 13.618 11.164 13.6392 11.1278 13.6529C11.0917 13.6666 11.0531 13.6725 11.0145 13.6702C10.651 13.6744 10.2874 13.6744 9.92391 13.6702C9.7432 13.6702 9.62783 13.5522 9.62941 13.3867C9.63099 13.2213 9.74479 13.1186 9.93182 13.1138H10.4702V13.1144Z" fill="black" stroke="black" stroke-width="0.5"/>
<path d="M15.5055 13.6723C15.3348 13.6723 15.164 13.6723 14.9934 13.6723C14.8005 13.6723 14.6772 13.5622 14.6772 13.3957C14.6772 13.2292 14.79 13.1165 14.9849 13.1154C15.3397 13.1133 15.6944 13.1133 16.0491 13.1154C16.233 13.1154 16.3505 13.2255 16.3526 13.3883C16.3547 13.5511 16.233 13.6675 16.0434 13.6728H15.5044L15.5055 13.6723Z" fill="black" stroke="black" stroke-width="0.5"/>
<path d="M15.5191 14.7977C15.6988 14.7977 15.8784 14.7977 16.0581 14.7977C16.2377 14.7977 16.3483 14.9062 16.3531 15.0648C16.3578 15.2233 16.2409 15.3508 16.0628 15.3529C15.6993 15.3572 15.3358 15.3566 14.9722 15.3529C14.7915 15.3529 14.6761 15.2339 14.6783 15.069C14.6804 14.9041 14.7931 14.7992 14.9807 14.7966C15.1682 14.794 15.34 14.7977 15.5191 14.7977Z" fill="black" stroke="black" stroke-width="0.5"/>
<path d="M15.517 16.4813C15.6961 16.4813 15.8757 16.4813 16.0554 16.4813C16.2351 16.4813 16.3552 16.5967 16.3541 16.7595C16.3531 16.9223 16.2335 17.0361 16.0517 17.0377C15.6929 17.0377 15.3336 17.0408 14.9748 17.0377C14.7936 17.0377 14.6772 16.9207 14.6782 16.7564C14.6793 16.592 14.792 16.484 14.978 16.4819C15.164 16.4798 15.3373 16.4813 15.517 16.4813Z" fill="black" stroke="black" stroke-width="0.5"/>
</svg>
