<svg width="24" height="24" viewBox="0 0 24 24" fill="none" xmlns="http://www.w3.org/2000/svg">
<path d="M10.0199 17.28H8.0399C7.33973 17.28 6.66824 17.0019 6.17314 16.5068C5.67804 16.0117 5.3999 15.3402 5.3999 14.64V8.7C5.3999 7.99983 5.67804 7.32834 6.17314 6.83324C6.66824 6.33814 7.33973 6.06 8.0399 6.06H15.2999C16.0001 6.06 16.6716 6.33814 17.1667 6.83324C17.6618 7.32834 17.9399 7.99983 17.9399 8.7V10.68M9.3599 5.4V6.72M13.9799 5.4V6.72M5.3999 9.36H17.9399M16.2899 14.4044L15.2999 15.3944" stroke="#999999" stroke-width="0.99" stroke-linecap="round" stroke-linejoin="round"/>
<path d="M15.3 18.6001C17.1225 18.6001 18.6 17.1226 18.6 15.3001C18.6 13.4776 17.1225 12.0001 15.3 12.0001C13.4775 12.0001 12 13.4776 12 15.3001C12 17.1226 13.4775 18.6001 15.3 18.6001Z" stroke="#999999" stroke-width="0.99" stroke-linecap="round" stroke-linejoin="round"/>
</svg>
